<?xml version="1.0" encoding="UTF-8"?>
<svg id="Horiz" xmlns="http://www.w3.org/2000/svg" viewBox="0 0 1190.55 382.68">
  <defs>
    <style>
      .cls-1 {
        fill: #231f20;
      }

      .cls-1, .cls-2, .cls-3 {
        stroke-width: 0px;
      }

      .cls-2 {
        fill: #9625d5;
      }

      .cls-3 {
        fill: #231f20;
      }

      .cls-4 {
        fill: #000;
        font-family: OpenSansRoman-Light, 'Open Sans';
        font-size: 43.04px;
        font-variation-settings: 'wght' 300, 'wdth' 100;
        font-weight: 300;
        letter-spacing: -.04em;
      }
    </style>
  </defs>
  <g id="Logomark">
    <g>
      <path class="cls-2" d="M441.7,293.46c-21.57,23.29-48.39,38.14-80.19,42.66-27.9,3.96-53.24-2.55-75.31-20.46-7.03-5.7-12.14-12.98-16.73-20.67-.72-.52-1.06-1.29-1.49-2.28.29.9.79,1.49.79,2.24,5.5,13.45,14.72,23.81,26.39,32.19,4.54,3.26,9.13,6.37,14.13,8.84.68.34,1.54.54,1.94,1.74-46.6-9.11-81.55-34.16-105.59-74.84,1.02-.54,1.51.23,1.97.54,16.25,10.87,33.58,11.67,51.69,5.76,10.74-3.51,20.75-8.37,29.69-15.73,1.06,4.59,1.83,9.05,3.16,13.36,7.06,22.84,22.47,36.99,45.44,43.34,18.95,5.22,37.3,2.92,55.24-4.12,39.25-15.44,65.32-43.77,80.36-82.77,8.03-20.84,11.4-42.33,9.22-64.64-.13-1.27-.41-2.6.86-4.34.79,4.98,1.74,9.43,2.17,13.93,4.5,48.39-11.17,90.06-43.75,125.26Z"/>
      <path class="cls-2" d="M439.94,170.44c-14.2,6.42-28.12,12.68-42.01,18.95-.82.38-1.58,1.09-1.92-.52-1.95-9.2-9.29-13.29-16.64-17.27-3.78-2.04-7.69-3.95-11.74-5.43-3.21-1.17-1.6-2.14-.22-5.19,4.7-10.42,6.93-19.73,7.15-20.65-7.13,15.25-9.28,18.26-9.73,19.13-2.78,5.04-1.79,4.24-7.6,2.41-12.07-3.79-24.01-5.27-36.31-1.54-12.82,3.87-25.14,8.84-36.17,16.64-4.95,2.76-5.61,7.17-4.61,12.03q1.29-7.87,5.27-11.4c13.09-7.35,26.82-13,41.72-15.47,10.26-1.69,20.33-.63,30.25,2.37.48.14,3.62.59,2.64,1.72-7.87,9.07-16.96,16.77-26.41,24.12-13.81,10.76-28.9,19.33-44.43,27.22-2.98,1.51-5.86,3.16-9.22,4.97v-14.34c0-5.07-.02-10.15.07-15.21.04-1.7-.38-2.69-2.1-3.44-4.43-1.94-8.73-4.23-13.13-6.28-3.12-1.45-3.16-1.36-3.16,2.21-.02,2.85-.02,5.68-.02,8.52,0,2.67-.5,5.43,2.33,7.3.99.66,1.6,2.4.99,3.3-1.67,2.42-.27,5.33-1.65,7.73-.77,1.38.09,2.78.43,4.11,1.24,4.89,3.1,9.63,3.51,14.72.14,1.78.06,4.23-1.82,4.9-2.28.82-3.96.85-5.95.76-.73-.03-3.5-.19-4.16-.25-1.64-.15-1.95-1.18-2.05-2.48-.07-4.14.33-5.65,1.14-9.67.65-3.17,1.97-6.31,1.94-9.45-.02-2.74.38-5.79-1.31-8.41-1.42-2.21-1.09-4.45,1.02-5.88,1.7-1.17,1.97-2.47,1.95-4.29-.09-4.66-.11-9.34.02-13.99.05-2.01-.66-3.01-2.49-3.85-5.52-2.47-10.94-5.2-16.73-8,4.09-2.1,7.91-4.09,11.76-6.02,27.95-14.09,56-28.04,84.22-41.6,1.79-.86,3.23-.88,5.06.02,11.58,5.68,68.73,32.47,80.83,38.26,6.36,3.05,12.69,6.11,19.26,9.27Z"/>
      <path class="cls-2" d="M336.45,40.12c-3.68-.43-25.03,2.01-31.95,3.53-11.51,2.56-22.72,6.02-33.19,11.57-2.69.57-4.7,2.46-7.08,3.62-8.79,4.32-16.55,10.11-23.96,16.44-11.21,9.02-20.58,19.69-28.46,31.68-6.87,9.54-11.85,20.01-15.76,31.04-4.75,11.62-7.19,23.81-8.52,36.17-2.17,20.4.21,40.36,7.12,59.76,4.98,14.02,14.22,23.06,29.03,25.87,10.36,1.97,20.76,1.43,31.07-.52,16.6-3.16,31.27-10.87,45.13-20.12,19.85-13.25,37.08-29.41,51.75-48.27,4.54-6.78,9-13.59,12.68-20.89-2.9,7.8-12.46,22.75-12.73,23.31-4.14,5.15-7.89,10.61-12.68,15.76,9.11.61,17.55,2.37,25.93,4.59,8.73,2.33,16.62,6.54,24.53,10.72,1.63,1.02,3.26,2.01,4.86,3.07,1.51.99,1.86.41,1.85-1.15-.07-10.24.02-20.48-.2-30.71-.13-6.35-2.31-11.85-7.69-15.76-7.06-5.15-14.94-8.72-22.86-12.21-1.1-.49-1.6.54-1.99,1.02-3.08,3.87-5.97,7.93-9.13,11.74-16.48,19.96-36.22,36.2-58.06,49.9-16.93,10.61-34.62,19.6-54.33,24.01-5.61,1.27-6.83.79-9.86-4.12-.48-.77-.9-1.58-1.33-2.38-7.37-13.82-11.74-28.56-13.48-44.11,0-1.61.04-3.25-.04-4.86-.91-18.52,2.67-36.22,9.81-53.27,6.38-15.19,15.74-28.38,26.77-40.49-.27-.18-.48-.3-.66-.41.2.04.41.16.66.41,4.66-3.86,8.95-8.12,13.82-11.73,8.34-6.19,17.55-10.74,26.99-14.9,13.56-4.88,27.47-7.98,41.94-8.12,2.73-1.26,5.77.36,8.48-.99-7.96-.93-15.94-.81-23.9-.11-11.58,1.02-22.97,3.01-33.83,7.37-3.69.99-7.15,2.6-10.6,4.2-10.54,4.93-20.48,10.74-28.49,19.4-10.33,9.27-18.59,20.19-25.39,32.24-6.47,11.49-11.48,23.56-13.97,36.6-1.69,5.7-2.62,11.53-2.55,17.48,0,5.79-.02,11.6-.02,17.39.47,12.03,3.07,23.6,7.84,34.7-1.54-1.24-2.42-2.83-3.26-4.43-8.5-16.16-10.88-33.44-9.66-51.44.41-6.06,1.94-11.96,2.74-17.95.22-.56.48-1.09.63-1.67,3.87-16.26,10.92-31.11,20.15-44.97,8.25-10.83,16.93-21.25,27.88-29.53,7.91-5.42,15.9-10.69,24.51-14.95l.04.04c2.15-.93,4.3-1.85,6.46-2.78,13.91-5.47,28.31-9.02,43.23-10.29,5.68-.93,11.35-.91,17.02-.04,2.65.22,5.31.43,7.94.63,9.11,1.29,18.06,3.25,26.84,6.01,11.62,3.66,22.32,9.22,32.79,15.33,3.89,2.9,7.76,5.85,11.65,8.75,40.43,30.02,53.49,65.69,54.39,69.08-6.8-27.31-14.51-41.58-23.97-55.76-14.5-21.75-50.43-58.75-116.93-64.49ZM398.4,57.12s.02-.04.05-.05h.04s-.05.05-.09.05Z"/>
      <path class="cls-2" d="M381.47,224.38c.04,1.13-.57.97-1.26.65-4.39.7-8.5,2.4-12.86,3.28-14.42,2.89-28.87,3.5-43.45,1.76-1.95-.23-3.94-.3-6.47-.5,5.74-5.49,11.05-10.56,16.39-15.6.57-.54,1.27-.9,2.19-.88,14.13.27,28.03,1.74,40.83,8.43,1.61.84,3.08,1.9,4.63,2.87Z"/>
      <path class="cls-2" d="M377.31,236.97c-.13.16-.25.48-.43.52-11.1,2.26-20.21,8.41-29.21,14.83-8.1,5.81-16.69,10.67-26.84,11.94-6.01.75-11.89.32-17.52-2.19-4.9-2.17-8.09-5.85-10.22-11.64,4.63,2.4,8.43,4.64,12.78,5.67,9.93,2.33,19.47,1.15,28.71-2.89,4.45-1.92,8.75-4.2,12.78-6.87,9.07-6.01,18.95-9.34,29.94-9.38Z"/>
    </g>
    <g id="Plane">
      <path class="cls-2" d="M386.21,91.03c.54,1.29.54,2.64.36,3.97-.21,1.58-.57,3.15-.89,4.72-.36,1.8-.72,3.61-1.13,5.4-.16.69.03,1.21.46,1.75,1.59,2.03,3.08,4.12,4.72,6.11.57.69,1.23,1.31,1.76,2.05.57.43.96,1.02,1.39,1.59,1.03,1.31,2.08,2.64,3.25,3.77,1.18,1.14,1.29,2.24.99,3.61,0,.03.01.06,0,.09-.15.57.05,1.37-.51,1.66s-.86-.49-1.25-.8c-4.01-3.16-8.06-6.27-12.25-9.18-.15-.11-.28-.24-.41-.35-.41.01-.25.33-.28.53-.67,3.51-1.33,7.02-2.87,10.29-.84,1.77-1.91,3.39-3.01,5-.17.24-.32.63-.66.54-.31-.08-.29-.51-.35-.79-.52-2.6-.54-5.21-.23-7.83.3-2.55.7-5.09,1.26-7.59.15-.66.14-.88-.66-.83-5.79.43-11.48,1.39-17.07,2.99-.23.07-.46.17-.69.23-.62.14-.87-.08-.68-.73.47-1.7,1.27-2.97,3.09-3.7,5.84-2.33,11.38-5.34,17.13-7.89.81-.36,1.14-.75,1.25-1.66.35-3.13.6-6.27,1.3-9.35.15-.66.35-1.29.73-1.85.79-1.33,1.7-2.52,3.36-2.8.83-.14,1.59.28,1.92,1.06Z"/>
      <path class="cls-2" d="M374.29,127.49c.08,1.43.27,3.38.87,4.71-3.23.08-6.35.57-9.55.91.07-1.32.55-2.13,1.83-2.56,1.57-.53,3.11-1.27,4.68-1.97.98-.47,1.05-.53,2.17-1.09Z"/>
      <path class="cls-2" d="M378.93,128.33c-.6,1.3-1.52,3.04-2.57,4.04,2.96,1.27,5.68,2.9,8.52,4.41.43-1.25.28-2.18-.74-3.06-1.25-1.08-2.41-2.34-3.61-3.57-.74-.8-.78-.88-1.6-1.82Z"/>
    </g>
  </g>
  <g id="LogoText">
    <g>
      <path class="cls-3" d="M684.93,224.62h-75.33V91.61h75.33v18.38h-53.5v36.12h50.13v18.29h-50.13v41.76h53.5v18.47Z"/>
      <path class="cls-3" d="M725.43,224.62h-21.56V83.06h21.56v141.57Z"/>
      <path class="cls-3" d="M759.28,85.33c3.28,0,6.11.88,8.51,2.64,2.39,1.76,3.59,4.79,3.59,9.1s-1.2,7.28-3.59,9.1c-2.4,1.82-5.23,2.73-8.51,2.73s-6.28-.91-8.64-2.73c-2.37-1.82-3.55-4.85-3.55-9.1s1.18-7.34,3.55-9.1c2.37-1.76,5.25-2.64,8.64-2.64ZM769.83,123.91v100.72h-21.47v-100.72h21.47Z"/>
      <path class="cls-3" d="M906.77,121.99c11.28,0,19.79,2.91,25.52,8.73,5.73,5.82,8.6,15.16,8.6,28.02v65.87h-21.38v-61.96c0-7.7-1.49-13.48-4.46-17.33-2.97-3.85-7.49-5.78-13.56-5.78-8.49,0-14.6,2.7-18.33,8.1-3.73,5.4-5.6,13.25-5.6,23.56v53.41h-21.38v-61.96c0-5.16-.65-9.45-1.96-12.87-1.3-3.43-3.29-5.99-5.96-7.69-2.67-1.7-6.04-2.55-10.1-2.55-5.88,0-10.57,1.32-14.06,3.96-3.49,2.64-5.99,6.55-7.51,11.74-1.52,5.18-2.27,11.54-2.27,19.06v50.31h-21.47v-100.72h16.74l3,13.56h1.18c2.06-3.52,4.62-6.41,7.69-8.69,3.06-2.27,6.47-3.97,10.24-5.09,3.76-1.12,7.67-1.68,11.74-1.68,7.52,0,13.86,1.32,19.02,3.96,5.15,2.64,9.01,6.66,11.55,12.06h1.64c3.15-5.46,7.55-9.49,13.19-12.1,5.64-2.61,11.61-3.91,17.92-3.91Z"/>
      <path class="cls-1" d="M1019,205.07c-3.79,2.66-8.92,4-15.41,4s-11.7-1.94-14.89-5.83c-3.17-3.88-4.78-9.72-4.78-17.56v-61.77h-21.56v65.78c0,8.55,1.44,15.53,4.33,20.93,2.87,5.39,7.01,9.38,12.37,11.95,5.36,2.59,11.81,3.88,19.33,3.88,1.22,0,4.48-.14,8.55-.34l15.47-24.12c-1.02,1.17-2.16,2.2-3.42,3.09Z"/>
      <path class="cls-2" d="M1125.17,226.11h-24.84l-33.48-54.41-33.66,54.41h-23.38l44.22-68.96-41.31-64.05h24.2l30.93,50.4,30.75-50.4h23.38l-41.4,64.69,44.58,68.33Z"/>
    </g>
    <text class="cls-4" transform="translate(606.3 283.03)"><tspan x="0" y="0">Where dreams cross borders</tspan></text>
  </g>
</svg>