<?xml version="1.0" encoding="UTF-8"?>
<svg id="SQ" xmlns="http://www.w3.org/2000/svg" viewBox="0 0 1190.55 1190.55">
  <defs>
    <style>
      .cls-1 {
        fill: #9625d5;
      }

      .cls-1, .cls-2, .cls-3 {
        stroke-width: 0px;
      }

      .cls-2 {
        fill: #9625d5;
      }

      .cls-4 {
        fill: #000;
        font-family: OpenSansRoman-Light, 'Open Sans';
        font-size: 73.02px;
        font-variation-settings: 'wght' 300, 'wdth' 100;
        font-weight: 300;
        letter-spacing: -.04em;
      }

      .cls-3 {
        fill: #231f20;
      }
    </style>
  </defs>
  <g id="Logomark">
    <g>
      <path class="cls-1" d="M716.99,425.88c-27.82,30.04-62.41,49.19-103.41,55.01-35.98,5.11-68.66-3.28-97.12-26.38-9.07-7.35-15.66-16.74-21.58-26.66-.92-.67-1.36-1.66-1.92-2.94.37,1.16,1.02,1.92,1.02,2.89,7.1,17.34,18.99,30.71,34.04,41.51,5.85,4.21,11.77,8.21,18.22,11.4.88.44,1.99.69,2.5,2.24-60.1-11.75-105.17-44.05-136.18-96.52,1.32-.69,1.94.3,2.54.69,20.95,14.01,43.31,15.05,66.67,7.42,13.85-4.53,26.75-10.8,38.29-20.28,1.36,5.92,2.36,11.68,4.07,17.23,9.11,29.46,28.97,47.71,58.6,55.89,24.44,6.73,48.1,3.77,71.25-5.32,50.62-19.91,84.24-56.45,103.64-106.74,10.36-26.87,14.71-54.6,11.89-83.36-.16-1.64-.53-3.35,1.11-5.6,1.02,6.43,2.24,12.16,2.8,17.97,5.8,62.41-14.41,116.15-56.42,161.55Z"/>
      <path class="cls-1" d="M714.72,267.23c-18.31,8.28-36.26,16.35-54.18,24.44-1.06.49-2.03,1.41-2.47-.67-2.52-11.86-11.98-17.14-21.46-22.27-4.88-2.64-9.92-5.1-15.15-7.01-4.14-1.51-2.06-2.76-.29-6.7,6.06-13.44,8.94-25.45,9.22-26.63-9.2,19.67-11.97,23.55-12.55,24.67-3.58,6.5-2.3,5.46-9.8,3.11-15.56-4.89-30.96-6.8-46.83-1.99-16.53,4.99-32.42,11.4-46.64,21.46-6.38,3.56-7.24,9.25-5.94,15.52q1.66-10.15,6.8-14.71c16.88-9.48,34.59-16.77,53.81-19.96,13.23-2.17,26.22-.81,39.01,3.05.62.18,4.67.76,3.4,2.22-10.15,11.7-21.88,21.62-34.06,31.1-17.81,13.87-37.28,24.93-57.3,35.1-3.84,1.94-7.56,4.07-11.89,6.41v-18.5c0-6.54-.02-13.09.09-19.61.05-2.2-.49-3.47-2.71-4.44-5.71-2.5-11.26-5.46-16.93-8.09-4.02-1.87-4.07-1.76-4.07,2.84-.02,3.68-.02,7.33-.02,10.98,0,3.45-.65,7.01,3.01,9.41,1.27.86,2.06,3.1,1.27,4.25-2.15,3.12-.35,6.87-2.13,9.97-.99,1.78.12,3.58.55,5.3,1.6,6.31,4,12.42,4.53,18.98.18,2.29.08,5.46-2.35,6.31-2.94,1.06-5.1,1.1-7.67.99-.94-.04-4.51-.25-5.37-.33-2.12-.19-2.51-1.52-2.64-3.19-.09-5.34.43-7.29,1.47-12.47.83-4.09,2.54-8.14,2.5-12.19-.02-3.54.49-7.47-1.69-10.85-1.83-2.84-1.41-5.73,1.32-7.58,2.2-1.5,2.54-3.19,2.52-5.53-.12-6.01-.14-12.05.02-18.04.07-2.59-.86-3.88-3.21-4.97-7.12-3.19-14.11-6.71-21.58-10.31,5.27-2.71,10.2-5.27,15.17-7.77,36.05-18.18,72.22-36.17,108.61-53.65,2.31-1.11,4.16-1.13,6.52.02,14.94,7.33,88.64,41.88,104.24,49.35,8.21,3.93,16.37,7.89,24.84,11.96Z"/>
      <path class="cls-1" d="M581.25,99.16c-4.74-.56-32.28,2.59-41.21,4.56-14.85,3.31-29.3,7.77-42.8,14.92-3.47.74-6.06,3.17-9.13,4.67-11.33,5.57-21.34,13.04-30.89,21.21-14.45,11.63-26.55,25.39-36.7,40.86-8.86,12.3-15.28,25.81-20.33,40.03-6.13,14.98-9.27,30.71-10.98,46.64-2.8,26.32.28,52.05,9.18,77.07,6.43,18.08,18.34,29.74,37.44,33.37,13.37,2.54,26.78,1.85,40.07-.67,21.41-4.07,40.33-14.01,58.2-25.95,25.6-17.09,47.82-37.92,66.74-62.25,5.85-8.74,11.61-17.53,16.35-26.94-3.75,10.06-16.07,29.34-16.42,30.06-5.34,6.64-10.18,13.69-16.35,20.33,11.75.79,22.64,3.05,33.44,5.92,11.26,3.01,21.44,8.44,31.63,13.83,2.1,1.32,4.21,2.59,6.27,3.95,1.94,1.27,2.4.53,2.38-1.48-.09-13.2.02-26.41-.25-39.61-.16-8.19-2.98-15.29-9.92-20.33-9.11-6.64-19.26-11.25-29.48-15.75-1.42-.63-2.06.69-2.57,1.32-3.98,4.99-7.7,10.22-11.77,15.15-21.25,25.74-46.71,46.69-74.88,64.35-21.83,13.69-44.65,25.27-70.07,30.96-7.24,1.64-8.81,1.02-12.72-5.32-.62-.99-1.16-2.03-1.71-3.08-9.5-17.83-15.15-36.84-17.39-56.89,0-2.08.05-4.19-.05-6.27-1.18-23.89,3.45-46.71,12.65-68.7,8.23-19.59,20.3-36.61,34.52-52.21-.35-.23-.62-.39-.86-.53.25.05.53.21.86.53,6.01-4.97,11.54-10.48,17.83-15.12,10.75-7.98,22.64-13.85,34.8-19.22,17.48-6.29,35.43-10.29,54.09-10.48,3.51-1.62,7.45.46,10.94-1.27-10.27-1.2-20.56-1.04-30.82-.14-14.94,1.32-29.62,3.88-43.64,9.5-4.76,1.27-9.23,3.35-13.67,5.41-13.6,6.36-26.41,13.85-36.74,25.02-13.32,11.96-23.98,26.04-32.74,41.58-8.35,14.82-14.8,30.39-18.01,47.2-2.17,7.35-3.38,14.87-3.28,22.55,0,7.47-.02,14.96-.02,22.43.6,15.52,3.95,30.43,10.11,44.75-1.99-1.6-3.12-3.65-4.21-5.71-10.96-20.83-14.04-43.13-12.46-66.34.53-7.82,2.5-15.42,3.54-23.15.28-.72.62-1.41.81-2.15,4.99-20.97,14.08-40.12,25.99-58,10.64-13.97,21.83-27.4,35.96-38.09,10.2-6.98,20.51-13.78,31.61-19.29l.05.05c2.77-1.2,5.55-2.38,8.32-3.58,17.94-7.05,36.51-11.63,55.75-13.27,7.33-1.2,14.64-1.18,21.94-.05,3.42.28,6.85.55,10.24.81,11.75,1.67,23.29,4.19,34.62,7.75,14.98,4.72,28.79,11.89,42.29,19.77,5.02,3.75,10,7.55,15.03,11.28,52.14,38.72,68.99,84.72,70.14,89.09-8.76-35.23-18.72-53.62-30.91-71.91-18.7-28.05-65.03-75.77-150.8-83.17ZM661.14,121.08s.02-.05.07-.07h.05s-.07.07-.12.07Z"/>
      <path class="cls-1" d="M639.31,336.78c.05,1.46-.74,1.25-1.62.83-5.67.9-10.96,3.1-16.58,4.23-18.59,3.72-37.23,4.51-56.03,2.27-2.52-.3-5.09-.39-8.35-.65,7.4-7.08,14.24-13.62,21.14-20.12.74-.69,1.64-1.16,2.82-1.13,18.22.35,36.14,2.24,52.65,10.87,2.08,1.09,3.98,2.45,5.97,3.7Z"/>
      <path class="cls-1" d="M633.95,353.02c-.16.21-.32.62-.55.67-14.31,2.91-26.06,10.85-37.67,19.12-10.45,7.49-21.53,13.76-34.62,15.4-7.75.97-15.33.42-22.59-2.82-6.31-2.8-10.43-7.54-13.18-15.01,5.97,3.1,10.87,5.99,16.49,7.31,12.81,3.01,25.11,1.48,37.02-3.72,5.73-2.47,11.28-5.41,16.49-8.86,11.7-7.75,24.44-12.05,38.62-12.09Z"/>
    </g>
    <g id="Plane">
      <path class="cls-1" d="M645.42,164.81c.69,1.66.69,3.4.46,5.12-.27,2.04-.74,4.06-1.15,6.08-.47,2.32-.93,4.65-1.45,6.96-.2.89.04,1.56.59,2.26,2.04,2.61,3.97,5.32,6.08,7.88.73.89,1.59,1.69,2.27,2.64.74.56,1.24,1.32,1.79,2.05,1.33,1.69,2.68,3.4,4.19,4.86,1.53,1.46,1.66,2.88,1.28,4.65,0,.04.01.08,0,.11-.19.74.07,1.77-.66,2.14s-1.11-.63-1.62-1.03c-5.17-4.07-10.4-8.08-15.8-11.84-.19-.14-.36-.31-.53-.46-.52.01-.32.43-.36.69-.86,4.53-1.71,9.06-3.7,13.27-1.08,2.28-2.46,4.37-3.88,6.45-.21.31-.42.82-.85.7-.4-.11-.38-.65-.45-1.02-.67-3.35-.69-6.73-.3-10.1.39-3.29.9-6.56,1.62-9.79.19-.85.18-1.14-.85-1.07-7.47.55-14.81,1.79-22.01,3.86-.3.09-.59.22-.89.3-.8.18-1.12-.1-.88-.94.6-2.2,1.64-3.83,3.98-4.77,7.54-3.01,14.68-6.88,22.09-10.18,1.05-.47,1.48-.96,1.61-2.14.45-4.03.77-8.08,1.68-12.05.2-.85.45-1.67.95-2.39,1.02-1.72,2.19-3.25,4.34-3.61,1.07-.18,2.05.35,2.47,1.37Z"/>
      <path class="cls-1" d="M630.05,211.83c.1,1.84.35,4.36,1.13,6.07-4.16.1-8.2.74-12.31,1.18.09-1.7.71-2.75,2.36-3.3,2.02-.69,4.01-1.64,6.04-2.54,1.27-.6,1.36-.68,2.79-1.4Z"/>
      <path class="cls-1" d="M636.03,212.91c-.78,1.67-1.95,3.92-3.31,5.21,3.82,1.64,7.33,3.74,10.99,5.69.55-1.61.37-2.81-.95-3.95-1.62-1.39-3.11-3.01-4.65-4.61-.95-1.03-1.01-1.14-2.07-2.34Z"/>
    </g>
  </g>
  <g id="LogoText">
    <g>
      <path class="cls-3" d="M272.41,785.36h-127.8v-225.65h127.8v31.18h-90.75v61.28h85.04v31.02h-85.04v70.84h90.75v31.33Z"/>
      <path class="cls-3" d="M341.1,785.36h-36.58v-240.16h36.58v240.16Z"/>
      <path class="cls-3" d="M398.53,549.06c5.56,0,10.37,1.49,14.43,4.47,4.06,2.98,6.1,8.13,6.1,15.43s-2.03,12.35-6.1,15.44c-4.07,3.09-8.88,4.63-14.43,4.63s-10.65-1.54-14.66-4.63-6.02-8.23-6.02-15.44,2.01-12.45,6.02-15.43c4.01-2.98,8.9-4.47,14.66-4.47ZM416.44,614.5v170.86h-36.42v-170.86h36.42Z"/>
      <path class="cls-3" d="M648.74,611.26c19.14,0,33.57,4.94,43.29,14.82,9.72,9.88,14.59,25.72,14.59,47.54v111.75h-36.27v-105.11c0-13.07-2.52-22.87-7.56-29.4-5.04-6.53-12.71-9.8-23-9.8-14.41,0-24.77,4.58-31.1,13.74-6.33,9.16-9.49,22.48-9.49,39.98v90.6h-36.27v-105.11c0-8.75-1.11-16.03-3.32-21.84-2.21-5.81-5.58-10.16-10.11-13.04-4.53-2.88-10.24-4.32-17.13-4.32-9.98,0-17.93,2.24-23.85,6.71-5.92,4.47-10.16,11.11-12.73,19.91-2.57,8.8-3.86,19.58-3.86,32.33v85.35h-36.42v-170.86h28.4l5.09,23h2.01c3.5-5.97,7.84-10.88,13.04-14.74,5.2-3.86,10.98-6.74,17.36-8.64,6.38-1.9,13.01-2.86,19.91-2.86,12.76,0,23.51,2.24,32.26,6.71,8.74,4.48,15.28,11.3,19.6,20.45h2.78c5.35-9.26,12.81-16.1,22.38-20.53,9.57-4.42,19.7-6.64,30.41-6.64Z"/>
      <path class="cls-3" d="M839.13,752.19c-6.43,4.51-15.14,6.79-26.15,6.79s-19.84-3.3-25.25-9.9c-5.39-6.57-8.1-16.5-8.1-29.79v-104.79h-36.58v111.59c0,14.51,2.45,26.34,7.35,35.51,4.88,9.15,11.89,15.91,20.98,20.28,9.1,4.39,20.04,6.57,32.8,6.57,2.06,0,7.59-.24,14.51-.58l26.25-40.92c-1.72,1.99-3.66,3.74-5.8,5.24Z"/>
      <path class="cls-2" d="M1019.24,787.88h-42.14l-56.8-92.3-57.11,92.3h-39.67l75.01-116.99-70.07-108.66h41.06l52.48,85.51,52.17-85.51h39.67l-70.23,109.74,75.63,115.91Z"/>
    </g>
    <text class="cls-4" transform="translate(139.02 884.45)"><tspan x="0" y="0">Where dreams cross borders</tspan></text>
  </g>
</svg>