<?xml version="1.0" encoding="UTF-8"?>
<svg id="SQ" xmlns="http://www.w3.org/2000/svg" viewBox="0 0 941.02 935.35">
  <defs>
    <style>
      .cls-1 {
        fill: #9625d5;
        stroke-width: 0px;
      }
    </style>
  </defs>
  <g id="Logomark">
    <g>
      <path class="cls-1" d="M801.16,796.28c-67.79,73.19-152.08,119.85-251.98,134.05-87.68,12.45-167.3-8-236.66-64.29-22.09-17.92-38.15-40.8-52.57-64.97-2.25-1.63-3.32-4.06-4.68-7.16.9,2.82,2.48,4.68,2.48,7.04,17.3,42.26,46.26,74.83,82.94,101.14,14.25,10.26,28.68,20,44.4,27.78,2.14,1.07,4.85,1.69,6.09,5.47-146.45-28.62-256.27-107.34-331.83-235.19,3.21-1.69,4.73.73,6.2,1.69,51.05,34.15,105.54,36.68,162.45,18.09,33.75-11.04,65.19-26.31,93.31-49.42,3.32,14.42,5.75,28.46,9.92,41.98,22.2,71.79,70.6,116.24,142.78,136.19,59.56,16.4,117.2,9.18,173.61-12.96,123.34-48.51,205.27-137.54,252.55-260.1,25.24-65.48,35.84-133.04,28.96-203.13-.39-4-1.3-8.17,2.7-13.64,2.48,15.66,5.47,29.64,6.82,43.78,14.14,152.08-35.1,283.03-137.49,393.64Z"/>
      <path class="cls-1" d="M795.63,409.69c-44.63,20.17-88.35,39.84-132.02,59.56-2.59,1.18-4.96,3.44-6.03-1.63-6.14-28.91-29.19-41.75-52.29-54.26-11.89-6.42-24.18-12.43-36.91-17.07-10.08-3.68-5.02-6.71-.7-16.32,14.77-32.75,21.78-62.01,22.46-64.89-22.42,47.93-29.16,57.4-30.57,60.1-8.72,15.84-5.62,13.31-23.87,7.58-37.92-11.91-75.45-16.57-114.1-4.85-40.29,12.17-79,27.78-113.65,52.29-15.55,8.68-17.64,22.54-14.48,37.81q4.06-24.74,16.57-35.84c41.13-23.1,84.3-40.85,131.12-48.63,32.23-5.3,63.9-1.97,95.06,7.44,1.52.45,11.38,1.86,8.28,5.41-24.74,28.51-53.3,52.68-83,75.79-43.39,33.81-90.83,60.74-139.63,85.53-9.35,4.73-18.43,9.92-28.96,15.61v-45.08c0-15.95-.06-31.89.22-47.78.11-5.35-1.18-8.45-6.59-10.82-13.92-6.09-27.44-13.3-41.25-19.72-9.8-4.56-9.92-4.28-9.92,6.93-.06,8.96-.06,17.86-.06,26.76,0,8.4-1.58,17.07,7.33,22.93,3.1,2.08,5.02,7.55,3.1,10.37-5.24,7.61-.84,16.74-5.18,24.29-2.42,4.34.28,8.73,1.35,12.9,3.89,15.38,9.75,30.26,11.04,46.26.45,5.58.19,13.3-5.73,15.39-7.16,2.59-12.43,2.68-18.68,2.4-2.29-.1-11-.61-13.08-.8-5.17-.47-6.12-3.72-6.43-7.78-.22-13.02,1.04-17.77,3.58-30.39,2.03-9.97,6.2-19.83,6.08-29.69-.06-8.62,1.18-18.2-4.11-26.43-4.45-6.93-3.44-13.97,3.21-18.48,5.35-3.66,6.2-7.78,6.14-13.47-.28-14.65-.34-29.36.06-43.95.17-6.31-2.09-9.47-7.83-12.11-17.36-7.78-34.37-16.34-52.57-25.13,12.85-6.59,24.85-12.85,36.96-18.93,87.85-44.29,175.97-88.13,264.66-130.72,5.63-2.7,10.14-2.76,15.89.06,36.4,17.86,215.98,102.04,254.01,120.24,20,9.58,39.89,19.21,60.52,29.13Z"/>
      <path class="cls-1" d="M470.4.16c-11.55-1.35-78.66,6.31-100.41,11.1-36.18,8.06-71.39,18.93-104.3,36.34-8.45,1.8-14.76,7.72-22.26,11.38-27.61,13.58-52.01,31.78-75.28,51.67-35.22,28.34-64.69,61.87-89.42,99.56-21.58,29.98-37.24,62.88-49.53,97.54-14.93,36.51-22.6,74.83-26.76,113.65-6.82,64.12.68,126.84,22.37,187.8,15.66,44.06,44.68,72.46,91.23,81.31,32.57,6.2,65.25,4.51,97.65-1.63,52.18-9.92,98.27-34.15,141.82-63.22,62.38-41.64,116.53-92.41,162.62-151.69,14.26-21.3,28.28-42.71,39.84-65.64-9.13,24.51-39.16,71.5-40.01,73.25-13.02,16.17-24.79,33.36-39.84,49.53,28.62,1.92,55.16,7.44,81.48,14.42,27.44,7.33,52.23,20.57,77.08,33.7,5.13,3.21,10.26,6.31,15.27,9.64,4.73,3.1,5.86,1.3,5.8-3.61-.23-32.17.06-64.35-.62-96.52-.39-19.95-7.27-37.25-24.17-49.53-22.2-16.17-46.94-27.41-71.84-38.37-3.46-1.52-5.01,1.69-6.26,3.21-9.69,12.17-18.76,24.91-28.68,36.91-51.78,62.71-113.82,113.76-182.45,156.81-53.19,33.36-108.81,61.59-170.73,75.45-17.64,4-21.47,2.48-30.99-12.96-1.52-2.42-2.82-4.96-4.17-7.49-23.16-43.44-36.91-89.76-42.37-138.61,0-5.07.11-10.2-.11-15.27-2.87-58.21,8.4-113.82,30.82-167.41,20.06-47.73,49.47-89.2,84.13-127.23-.84-.56-1.52-.96-2.08-1.3.62.11,1.3.51,2.08,1.3,14.65-12.11,28.12-25.53,43.44-36.85,26.2-19.44,55.16-33.75,84.8-46.82,42.6-15.33,86.32-25.07,131.79-25.53,8.56-3.94,18.14,1.13,26.65-3.1-25.02-2.93-50.09-2.54-75.11-.34-36.4,3.21-72.18,9.47-106.33,23.16-11.61,3.1-22.48,8.17-33.3,13.19-33.13,15.5-64.35,33.75-89.53,60.97-32.46,29.13-58.43,63.45-79.79,101.31-20.34,36.12-36.06,74.04-43.89,115-5.3,17.92-8.23,36.23-8,54.94,0,18.2-.06,36.46-.06,54.66,1.47,37.81,9.64,74.15,24.62,109.03-4.85-3.89-7.61-8.9-10.26-13.92-26.71-50.77-34.2-105.09-30.37-161.66,1.3-19.05,6.08-37.58,8.62-56.4.68-1.75,1.52-3.44,1.97-5.24,12.17-51.11,34.32-97.76,63.33-141.32,25.92-34.03,53.19-66.77,87.62-92.8,24.85-17.02,49.98-33.58,77.03-46.99l.11.11c6.76-2.93,13.52-5.8,20.29-8.73,43.73-17.19,88.97-28.34,135.85-32.34,17.86-2.93,35.67-2.87,53.47-.11,8.34.68,16.68,1.35,24.96,1.97,28.62,4.06,56.74,10.2,84.35,18.88,36.51,11.49,70.15,28.96,103.06,48.18,12.23,9.13,24.37,18.4,36.63,27.5,127.05,94.35,168.1,206.43,170.92,217.08-21.36-85.83-45.61-130.65-75.33-175.23C792.31,134.48,679.4,18.2,470.4.16ZM665.08,53.57c.06-.06.06-.11.17-.17h.11c-.11.06-.17.17-.28.17Z"/>
      <path class="cls-1" d="M611.89,579.18c.11,3.55-1.8,3.04-3.94,2.03-13.8,2.2-26.71,7.55-40.4,10.31-45.3,9.07-90.72,10.99-136.53,5.52-6.14-.73-12.4-.96-20.34-1.58,18.03-17.24,34.71-33.19,51.5-49.02,1.8-1.69,4-2.82,6.87-2.76,44.4.85,88.07,5.47,128.3,26.48,5.07,2.65,9.69,5.97,14.54,9.02Z"/>
      <path class="cls-1" d="M598.81,618.73c-.39.51-.79,1.52-1.35,1.63-34.88,7.1-63.5,26.43-91.79,46.6-25.47,18.26-52.46,33.53-84.35,37.53-18.88,2.37-37.36,1.01-55.05-6.87-15.38-6.82-25.41-18.37-32.12-36.57,14.54,7.55,26.48,14.59,40.18,17.81,31.22,7.33,61.19,3.61,90.21-9.07,13.97-6.03,27.5-13.18,40.17-21.58,28.51-18.88,59.56-29.36,94.1-29.47Z"/>
    </g>
    <g id="Plane">
      <path class="cls-1" d="M626.77,160.13c1.68,4.04,1.69,8.29,1.13,12.47-.66,4.98-1.8,9.89-2.8,14.82-1.13,5.66-2.27,11.33-3.54,16.96-.49,2.18.1,3.79,1.43,5.5,4.98,6.37,9.68,12.96,14.82,19.2,1.78,2.16,3.87,4.12,5.52,6.43,1.8,1.35,3.02,3.22,4.36,4.99,3.24,4.11,6.52,8.3,10.21,11.84,3.72,3.57,4.05,7.02,3.12,11.34-.02.09.03.19.01.28-.46,1.8.17,4.32-1.6,5.22s-2.71-1.54-3.94-2.51c-12.61-9.93-25.33-19.69-38.51-28.84-.47-.33-.87-.75-1.3-1.12-1.27.03-.78,1.04-.89,1.67-2.1,11.03-4.18,22.07-9.03,32.32-2.63,5.56-6,10.66-9.46,15.71-.52.76-1.02,1.99-2.08,1.7-.98-.26-.92-1.6-1.1-2.5-1.63-8.16-1.69-16.39-.72-24.62.95-8.01,2.2-15.98,3.95-23.86.47-2.07.45-2.78-2.07-2.6-18.2,1.34-36.09,4.37-53.64,9.4-.73.21-1.43.54-2.18.72-1.96.44-2.73-.24-2.15-2.28,1.47-5.35,4-9.33,9.71-11.61,18.36-7.33,35.77-16.77,53.82-24.81,2.55-1.14,3.6-2.34,3.91-5.21,1.09-9.82,1.87-19.7,4.1-29.37.48-2.07,1.1-4.06,2.3-5.83,2.48-4.19,5.33-7.91,10.56-8.79,2.61-.44,4.99.86,6.03,3.34Z"/>
      <path class="cls-1" d="M589.32,274.71c.24,4.49.86,10.63,2.75,14.79-10.14.24-19.97,1.8-30.01,2.87.22-4.14,1.73-6.69,5.74-8.05,4.92-1.68,9.77-3.99,14.71-6.19,3.09-1.46,3.31-1.66,6.81-3.42Z"/>
      <path class="cls-1" d="M603.88,277.33c-1.9,4.08-4.76,9.54-8.07,12.7,9.32,4,17.86,9.12,26.77,13.86,1.34-3.92.89-6.85-2.32-9.61-3.94-3.4-7.57-7.34-11.34-11.23-2.32-2.51-2.45-2.77-5.04-5.71Z"/>
    </g>
  </g>
</svg>